<?xml version="1.0" encoding="UTF-8" standalone="no"?>
<svg width="26px" height="26px" viewBox="0 0 26 26" version="1.1" xmlns="http://www.w3.org/2000/svg" xmlns:xlink="http://www.w3.org/1999/xlink">
    <!-- Generator: Sketch 42 (36781) - http://www.bohemiancoding.com/sketch -->
    <title>appearance</title>
    <desc>Created with Sketch.</desc>
    <defs></defs>
    <g id="Page-1" stroke="none" stroke-width="1" fill="none" fill-rule="evenodd">
        <g id="Desktop-HD" transform="translate(-597.000000, -223.000000)" fill-rule="nonzero" fill="#FFFFFF">
            <g id="Manage-Icons" transform="translate(597.000000, 169.000000)">
                <g id="appearance" transform="translate(0.000000, 54.000000)">
                    <path d="M7.254,22.567 C7.561,21.585 8.024,20.203 8.645,18.205 C11.352,17.776 12.472,18.546 14.191,15.476 C12.796,15.903 11.114,14.684 11.204,14.155 C11.295,13.627 15.117,14.536 17.62,10.982 C14.465,11.678 13.456,10.146 13.863,9.915 C14.802,9.381 17.589,9.693 19.075,8.246 C19.841,7.501 20.2,5.69 19.888,5.044 C19.514,4.263 17.232,3.098 15.974,3.208 C14.716,3.317 12.743,7.998 12.157,7.962 C11.573,7.925 11.454,5.864 12.476,3.949 C11.399,4.426 9.425,5.908 8.806,7.175 C7.653,9.532 8.914,14.941 8.51,15.133 C8.105,15.326 6.744,12.652 6.338,11.439 C5.783,13.298 5.77,15.16 7.391,17.633 C6.78,19.256 6.446,21.124 6.395,22.074 C6.371,22.833 7.119,22.996 7.254,22.567 Z" id="Shape"></path>
                </g>
            </g>
        </g>
    </g>
</svg>