<?xml version="1.0" encoding="UTF-8" standalone="no"?>
<svg width="64px" height="64px" viewBox="0 0 64 64" version="1.1" xmlns="http://www.w3.org/2000/svg" xmlns:xlink="http://www.w3.org/1999/xlink">
    <!-- Generator: Sketch 42 (36781) - http://www.bohemiancoding.com/sketch -->
    <title>config</title>
    <desc>Created with Sketch.</desc>
    <defs></defs>
    <g id="Page-1" stroke="none" stroke-width="1" fill="none" fill-rule="evenodd">
        <g id="Desktop-HD" transform="translate(-33.000000, -539.000000)" fill-rule="nonzero" fill="#FFFFFF">
            <g id="Menu" transform="translate(33.000000, 85.000000)">
                <g id="config" transform="translate(0.000000, 454.000000)">
                    <path d="M23.7282408,27.9270852 C24.852469,27.0534888 25.7851084,27.6559691 27.0298327,29.0971019 C27.1696081,29.2597716 27.357582,29.0693878 27.4648234,28.9766058 C27.57086,28.8826189 29.2132212,27.4041323 29.2939536,27.3366545 C29.373481,27.2655619 29.4698778,27.1330162 29.3433569,26.9848061 C29.2144262,26.8365959 28.7481064,26.2317057 28.4480713,25.8388886 C26.2695026,22.9891569 34.4078061,21.0564002 33.158262,21.0262761 C32.5220429,21.0094067 29.9699364,20.9792827 29.5879639,21.0214563 C28.0419995,21.184126 26.1008081,22.6288737 25.1235851,23.3024466 C23.845122,24.177248 23.3679576,24.6905612 23.2896351,24.7616538 C22.928147,25.0773535 23.231797,25.8063546 22.5762985,26.3811208 C21.8834462,26.987216 21.4508653,26.528126 21.0496135,26.8799745 C20.850795,27.0558987 20.2941032,27.4728151 20.1350484,27.6113855 C19.9747887,27.7523659 19.9458696,27.9897432 20.1097443,28.178922 C20.1097443,28.178922 21.6328144,29.8610469 21.7605402,30.010462 C21.8870611,30.1574672 22.2316798,30.285193 22.4437528,30.0960142 C22.6570309,29.9080404 23.2052879,29.429671 23.2968649,29.3453238 C23.3908518,29.2657964 23.2366169,28.3078527 23.7282408,27.9270852 Z M30.6061556,28.5500498 C30.4615603,28.3825603 30.2820212,28.3777405 30.1277863,28.515106 L28.3998728,30.0237166 C28.2637123,30.1442126 28.2444329,30.3647204 28.3673389,30.5057008 L38.3612817,41.8793234 C38.595044,42.1480296 38.9999108,42.1757437 39.2662071,41.9431863 L40.4350188,40.9635534 C40.70252,40.7285861 40.7302341,40.3213094 40.4976767,40.0501933 L30.6061556,28.5500498 Z M43.9318143,23.7097233 C43.8426472,23.1144728 43.5341773,23.2385837 43.3739176,23.4904205 C43.2136578,23.7446671 42.505141,24.818287 42.2135406,25.3050911 C41.92435,25.7870753 41.2110134,26.7401991 39.8831469,25.7991249 C38.4998522,24.8219019 38.9806314,24.1398942 39.2216235,23.6808042 C39.4638206,23.2193043 40.2072812,21.9251767 40.3145227,21.764917 C40.4217642,21.6022473 40.2964483,21.1299028 39.8674824,21.3275163 C39.4373115,21.5251298 36.8273669,22.5626008 36.4658787,24.0507271 C36.0959559,25.5641576 36.7755536,26.9173283 35.4416623,28.2608593 L33.8234003,29.9478041 L35.448892,31.8347723 L37.4418968,29.9429842 C37.9166512,29.4658198 38.931228,29.00191 39.849408,29.2115732 C41.8171085,29.6562036 42.8907284,28.9175628 43.5377922,27.6957328 C44.1185832,26.6040385 44.0221863,24.3049738 43.9318143,23.7097233 Z M23.2510764,40.1730993 C23.0004446,40.424936 23.0004446,40.8346226 23.2510764,41.0864594 L24.3969939,42.2070727 C24.6476257,42.4589094 25.0452627,42.3528729 25.2958945,42.1010361 L31.2086359,36.2883065 L29.3975802,34.2230041 L23.2510764,40.1730993 Z" id="Shape"></path>
                </g>
            </g>
        </g>
    </g>
</svg>