<?xml version="1.0" encoding="UTF-8" standalone="no"?>
<svg width="26px" height="26px" viewBox="0 0 26 26" version="1.1" xmlns="http://www.w3.org/2000/svg" xmlns:xlink="http://www.w3.org/1999/xlink">
    <!-- Generator: Sketch 42 (36781) - http://www.bohemiancoding.com/sketch -->
    <title>content</title>
    <desc>Created with Sketch.</desc>
    <defs></defs>
    <g id="Page-1" stroke="none" stroke-width="1" fill="none" fill-rule="evenodd">
        <g id="Desktop-HD" transform="translate(-170.000000, -91.000000)" fill-rule="nonzero" fill="#FFFFFF">
            <g id="Manage-Icons" transform="translate(170.000000, 64.000000)">
                <g id="content" transform="translate(0.000000, 27.000000)">
                    <path d="M20.4657778,6 L5.53333333,6 C5.23822222,6 5,6.23733333 5,6.53333333 L5,8.66666667 L21,8.66666667 L21,6.53333333 C21,6.23733333 20.76,6 20.4657778,6 Z M5.88888889,18.9777778 C5.88888889,19.6622222 6.448,20.2222222 7.13244444,20.2222222 L18.8657778,20.2222222 C19.5502222,20.2222222 20.1102222,19.6613333 20.1102222,18.9777778 L20.1102222,9.55555556 L5.88888889,9.55555556 L5.88888889,18.9777778 Z M10.3333333,11.3333333 L15.6666667,11.3333333 L15.6666667,13.1111111 L10.3333333,13.1111111 L10.3333333,11.3333333 Z" id="Shape"></path>
                </g>
            </g>
        </g>
    </g>
</svg>